<svg width="336" height="248" viewBox="0 0 336 248" fill="none" xmlns="http://www.w3.org/2000/svg">
  <mask id="mask0_4280_8674" style="mask-type:alpha" maskUnits="userSpaceOnUse" x="0" y="-88" width="336" height="336">
    <rect width="336" height="336" transform="translate(0 -88)" fill="url(#paint0_radial_4280_8674)"/>
  </mask>
  <g mask="url(#mask0_4280_8674)">
    <circle cx="168" cy="80" r="47.5" stroke="#E3E8EF"/>
    <circle cx="168" cy="80" r="47.5" stroke="#E3E8EF"/>
    <circle cx="168" cy="80" r="71.5" stroke="#E3E8EF"/>
    <circle cx="168" cy="80" r="95.5" stroke="#E3E8EF"/>
    <circle cx="168" cy="80" r="119.5" stroke="#E3E8EF"/>
    <circle cx="168" cy="80" r="143.5" stroke="#E3E8EF"/>
    <circle cx="168" cy="80" r="167.5" stroke="#E3E8EF"/>
  </g>
  <path d="M170.333 56.6666L149.551 81.6049C148.738 82.5816 148.331 83.0699 148.324 83.4824C148.319 83.8409 148.479 84.182 148.758 84.4074C149.078 84.6666 149.714 84.6666 150.985 84.6666H168L165.667 103.333L186.449 78.395C187.262 77.4183 187.669 76.93 187.676 76.5175C187.681 76.159 187.521 75.8179 187.242 75.5925C186.922 75.3333 186.286 75.3333 185.015 75.3333H168L170.333 56.6666Z" fill="url(#paint1_linear_4280_8674)"/>
  <defs>
    <radialGradient id="paint0_radial_4280_8674" cx="0" cy="0" r="1" gradientUnits="userSpaceOnUse" gradientTransform="translate(168 -4.00543e-05) rotate(90) scale(336 175.371)">
      <stop/>
      <stop offset="0.953125" stop-opacity="0"/>
    </radialGradient>
    <linearGradient id="paint1_linear_4280_8674" x1="148.324" y1="103.333" x2="198.311" y2="83.5826" gradientUnits="userSpaceOnUse">
      <stop stop-color="#FF50C8"/>
      <stop offset="1" stop-color="#7100FF"/>
      <stop offset="1" stop-color="#8E00FF"/>
    </linearGradient>
  </defs>
</svg>
