<svg width="400" height="98" viewBox="0 0 400 98" fill="none" xmlns="http://www.w3.org/2000/svg">
  <path d="M287.732 -36.3209C238.994 -85.1506 159.99 -85.1506 111.252 -36.3209C62.5136 12.5088 62.5724 91.603 111.31 140.433C160.048 189.262 238.994 189.204 287.673 140.433C336.352 91.6619 336.411 12.4499 287.732 -36.3209ZM130.4 121.308C92.2211 83.0571 92.2505 21.0843 130.4 -17.1367C168.549 -55.3577 230.405 -55.3872 268.584 -17.1367C306.762 21.1137 306.762 83.0571 268.584 121.308C230.405 159.558 168.549 159.529 130.4 121.308Z" fill="#B84794" fill-opacity="0.03"/>
  <path d="M240.433 53.6692C224.294 62.5044 210.983 75.8404 202.164 92.0103C200.792 94.5108 197.214 94.5108 195.883 92.0103C187.065 75.8404 173.754 62.5043 157.614 53.6692C155.118 52.2939 155.118 48.7099 157.614 47.3763C173.754 38.5412 187.065 25.2051 195.883 9.03517C197.256 6.53466 200.833 6.53466 202.164 9.03517C210.983 25.2051 224.294 38.5412 240.433 47.3763C242.929 48.7516 242.929 52.3356 240.433 53.6692Z" fill="#B84794" fill-opacity="0.03"/>
  <path fill-rule="evenodd" clip-rule="evenodd" d="M122.659 -133.665C147.016 -143.789 173.123 -149 199.487 -149C225.852 -149 251.958 -143.789 276.316 -133.665C300.674 -123.54 322.806 -108.701 341.448 -89.9934L347.757 -83.6624C353.975 -77.423 353.975 -67.3174 347.757 -61.078L335.175 -48.4519C328.943 -42.1984 318.829 -42.1984 312.597 -48.4519L306.324 -54.7469C292.294 -68.8257 275.638 -79.9936 257.307 -87.613C238.976 -95.2323 219.329 -99.154 199.487 -99.154C179.646 -99.154 159.999 -95.2323 141.668 -87.613C123.337 -79.9936 106.681 -68.8257 92.6509 -54.7469L86.3777 -48.4519C80.1459 -42.1984 70.0316 -42.1984 63.7998 -48.4519L51.2175 -61.078C44.9997 -67.3174 44.9997 -77.423 51.2175 -83.6624L57.5266 -89.9934C76.1692 -108.701 98.3011 -123.54 122.659 -133.665Z" fill="#B84794" fill-opacity="0.03"/>
  <path fill-rule="evenodd" clip-rule="evenodd" d="M1.71828 76.0412C5.161 102.24 13.7206 127.504 26.9085 150.389C40.0963 173.274 57.654 193.332 78.5793 209.419C99.5045 225.506 123.387 237.306 148.864 244.145L157.456 246.451C165.966 248.736 174.713 243.676 176.993 235.15L181.598 217.934C183.878 209.408 178.828 200.645 170.318 198.36L161.726 196.054C142.553 190.907 124.579 182.026 108.831 169.92C93.0833 157.813 79.8698 142.718 69.9449 125.495C60.02 108.272 53.5783 89.2595 50.9874 69.5425C48.3964 49.8256 49.7072 29.7904 54.8446 10.5809L57.1468 1.97305C59.427 -6.55298 54.3768 -15.3167 45.8668 -17.6012L28.6834 -22.2142C20.1734 -24.4987 11.4261 -19.439 9.14587 -10.913L6.84372 -2.30507C0.0171954 23.2198 -1.72443 49.8419 1.71828 76.0412Z" fill="#B84794" fill-opacity="0.03"/>
  <path fill-rule="evenodd" clip-rule="evenodd" d="M398.127 76.0412C394.685 102.24 386.125 127.504 372.937 150.389C359.749 173.274 342.191 193.332 321.266 209.419C300.341 225.506 276.458 237.306 250.981 244.145L242.39 246.451C233.88 248.736 225.132 243.676 222.852 235.15L218.248 217.934C215.967 209.408 221.018 200.645 229.528 198.36L238.119 196.054C257.293 190.907 275.267 182.026 291.014 169.92C306.762 157.813 319.976 142.718 329.901 125.495C339.825 108.272 346.267 89.2595 348.858 69.5425C351.449 49.8256 350.138 29.7904 345.001 10.5809L342.699 1.97305C340.418 -6.55298 345.469 -15.3167 353.979 -17.6012L371.162 -22.2142C379.672 -24.4987 388.419 -19.439 390.7 -10.913L393.002 -2.30507C399.828 23.2198 401.57 49.8419 398.127 76.0412Z" fill="#B84794" fill-opacity="0.03"/>
</svg>
