<svg width="341" height="319" viewBox="0 0 341 319" fill="none" xmlns="http://www.w3.org/2000/svg">
  <g style="mix-blend-mode:plus-lighter">
    <mask id="mask0_4950_20948" style="mask-type:alpha" maskUnits="userSpaceOnUse" x="0" y="-131" width="450" height="450">
      <rect width="450" height="450" transform="translate(0 -131)" fill="url(#paint0_radial_4950_20948)"/>
    </mask>
    <g mask="url(#mask0_4950_20948)">
      <circle opacity="0.6" cx="225.001" cy="93.9996" r="63.7857" stroke="white" stroke-dasharray="3 3"/>
      <circle opacity="0.6" cx="225.001" cy="93.9999" r="95.9286" stroke="white" stroke-dasharray="3 3"/>
      <circle opacity="0.6" cx="224.999" cy="94.0001" r="128.071" stroke="white" stroke-dasharray="3 3"/>
      <circle opacity="0.6" cx="224.999" cy="94.0004" r="160.214" stroke="white" stroke-dasharray="3 3"/>
      <circle opacity="0.6" cx="225" cy="93.9997" r="192.357" stroke="white" stroke-dasharray="3 3"/>
      <circle opacity="0.6" cx="225" cy="94" r="224.33" stroke="#DBC6D4" stroke-width="1.33929"/>
    </g>
    <path d="M247.549 73.1725C235.292 60.9157 215.423 60.9157 203.166 73.1725C190.909 85.4294 190.924 105.283 203.181 117.54C215.438 129.797 235.292 129.782 247.534 117.54C259.776 105.298 259.791 85.4146 247.549 73.1725ZM207.982 112.739C198.38 103.138 198.388 87.582 207.982 77.988C217.576 68.3941 233.132 68.3867 242.733 77.988C252.334 87.5893 252.334 103.138 242.733 112.739C233.132 122.341 217.576 122.333 207.982 112.739Z" fill="white" fill-opacity="0.4"/>
    <path fill-rule="evenodd" clip-rule="evenodd" d="M206.504 49.8444C212.481 47.3643 218.888 46.0879 225.359 46.0879C231.829 46.0879 238.236 47.3643 244.214 49.8444C250.191 52.3244 255.623 55.9594 260.198 60.5419C262.576 62.9233 262.579 66.7907 260.201 69.1722C257.822 71.5553 253.957 71.5587 251.578 69.1757C248.135 65.727 244.047 62.9914 239.548 61.125C235.05 59.2586 230.228 58.2979 225.359 58.2979C220.489 58.2979 215.667 59.2586 211.169 61.125C206.67 62.9914 202.582 65.727 199.139 69.1757C196.76 71.5587 192.895 71.5553 190.516 69.1722C188.138 66.7908 188.141 62.9233 190.519 60.5419C195.094 55.9594 200.526 52.3244 206.504 49.8444Z" fill="white" fill-opacity="0.87"/>
    <path fill-rule="evenodd" clip-rule="evenodd" d="M176.822 101.213C177.667 107.631 179.768 113.819 183.004 119.425C186.241 125.031 190.55 129.944 195.685 133.885C200.82 137.825 206.682 140.716 212.934 142.391L215.043 142.956C217.131 143.516 219.278 142.276 219.837 140.188L220.967 135.971C221.527 133.882 220.288 131.736 218.199 131.176L216.091 130.611C211.385 129.35 206.974 127.175 203.109 124.209C199.245 121.244 196.002 117.546 193.566 113.327C191.13 109.108 189.549 104.451 188.914 99.6214C188.278 94.7916 188.599 89.8839 189.86 85.1785L190.425 83.0699C190.985 80.9814 189.745 78.8347 187.657 78.2751L183.44 77.1451C181.351 76.5855 179.205 77.8249 178.645 79.9134L178.08 82.022C176.405 88.2744 175.977 94.7956 176.822 101.213Z" fill="white" fill-opacity="0.87"/>
    <path fill-rule="evenodd" clip-rule="evenodd" d="M274.107 101.213C273.262 107.631 271.162 113.819 267.925 119.425C264.689 125.031 260.38 129.944 255.244 133.885C250.109 137.825 244.248 140.716 237.995 142.391L235.887 142.956C233.798 143.516 231.652 142.276 231.092 140.188L229.962 135.971C229.402 133.882 230.642 131.736 232.73 131.176L234.839 130.611C239.544 129.35 243.955 127.175 247.82 124.209C251.685 121.244 254.928 117.546 257.363 113.327C259.799 109.108 261.38 104.451 262.016 99.6214C262.652 94.7916 262.33 89.8839 261.069 85.1785L260.504 83.0699C259.945 80.9814 261.184 78.8347 263.273 78.2751L267.49 77.1451C269.578 76.5855 271.725 77.8249 272.284 79.9134L272.849 82.022C274.525 88.2744 274.952 94.7956 274.107 101.213Z" fill="white" fill-opacity="0.87"/>
    <path fill-rule="evenodd" clip-rule="evenodd" d="M212.867 92.3188H234.557C234.828 92.3188 235.077 92.4319 235.281 92.6354L238.718 96.1638C239.352 96.8197 238.899 97.928 237.995 97.928H216.304C216.033 97.928 215.784 97.8149 215.581 97.6113L212.143 94.083C211.51 93.4271 211.962 92.3188 212.867 92.3188ZM212.143 87.637L215.581 84.1086C215.762 83.9051 216.033 83.792 216.304 83.792H237.972C238.877 83.792 239.329 84.9003 238.696 85.5562L235.281 89.0845C235.1 89.2881 234.828 89.4011 234.557 89.4011H212.867C211.962 89.4011 211.51 88.2929 212.143 87.637ZM238.696 102.587L235.258 106.115C235.054 106.319 234.806 106.432 234.534 106.432H212.867C211.962 106.432 211.51 105.324 212.143 104.668L215.581 101.14C215.762 100.936 216.033 100.823 216.304 100.823H237.972C238.877 100.823 239.329 101.931 238.696 102.587Z" fill="white" fill-opacity="0.87"/>
  </g>
  <defs>
    <radialGradient id="paint0_radial_4950_20948" cx="0" cy="0" r="1" gradientUnits="userSpaceOnUse" gradientTransform="translate(225 -5.36442e-05) rotate(90) scale(450 234.871)">
      <stop/>
      <stop offset="0.953125" stop-opacity="0"/>
    </radialGradient>
  </defs>
</svg>
